<svg xmlns="http://www.w3.org/2000/svg" width="420.0mm" height="297.0mm" viewBox="0 0 420.0 297.0"><rect width="420.0" height="297.0" fill="#ffffff"/><rect x="20.00" y="8.00" width="392.00" height="281.00" fill="none" stroke="#1a1a1a" stroke-width="0.7"/>
<rect x="16.00" y="4.00" width="4.00" height="281.00" fill="none" stroke="#1a1a1a" stroke-width="0.7"/>
<rect x="227.00" y="246.00" width="185.00" height="9.00" fill="none" stroke="#1a1a1a" stroke-width="0.7"/>
<line x1="288.67" y1="246.00" x2="288.67" y2="255.00" stroke="#1a1a1a" stroke-width="0.35" stroke-linecap="round"/>
<line x1="350.33" y1="246.00" x2="350.33" y2="255.00" stroke="#1a1a1a" stroke-width="0.35" stroke-linecap="round"/>
<text x="257.83" y="249.20" font-family="Liberation Sans, Arial, sans-serif" font-size="2.00" fill="#1a1a1a" text-anchor="middle" font-weight="bold">DIGAMBAR</text>
<line x1="230.00" y1="252.80" x2="285.67" y2="252.80" stroke="#1a1a1a" stroke-width="0.15" stroke-linecap="round"/>
<text x="257.83" y="254.40" font-family="Liberation Sans, Arial, sans-serif" font-size="1.50" fill="#666666" text-anchor="middle">NAMA / TGL :</text>
<text x="319.50" y="249.20" font-family="Liberation Sans, Arial, sans-serif" font-size="2.00" fill="#1a1a1a" text-anchor="middle" font-weight="bold">DIPERIKSA</text>
<line x1="291.67" y1="252.80" x2="347.33" y2="252.80" stroke="#1a1a1a" stroke-width="0.15" stroke-linecap="round"/>
<text x="319.50" y="254.40" font-family="Liberation Sans, Arial, sans-serif" font-size="1.50" fill="#666666" text-anchor="middle">NAMA / TGL :</text>
<text x="381.17" y="249.20" font-family="Liberation Sans, Arial, sans-serif" font-size="2.00" fill="#1a1a1a" text-anchor="middle" font-weight="bold">DISAHKAN</text>
<line x1="353.33" y1="252.80" x2="409.00" y2="252.80" stroke="#1a1a1a" stroke-width="0.15" stroke-linecap="round"/>
<text x="381.17" y="254.40" font-family="Liberation Sans, Arial, sans-serif" font-size="1.50" fill="#666666" text-anchor="middle">NAMA / TGL :</text>
<rect x="227.00" y="255.00" width="185.00" height="34.00" fill="none" stroke="#1a1a1a" stroke-width="0.7"/>
<rect x="227.00" y="255.00" width="185.00" height="7.50" fill="none" stroke="#1a1a1a" stroke-width="0.35"/>
<line x1="227.00" y1="262.50" x2="412.00" y2="262.50" stroke="#1a1a1a" stroke-width="0.35" stroke-linecap="round"/>
<text x="229.50" y="260.30" font-family="Liberation Sans, Arial, sans-serif" font-size="3.40" fill="#1a1a1a" text-anchor="start" font-weight="bold">PEMBANGUNAN PLTS GROUND MOUNT 2,75 kWp</text>
<line x1="227.00" y1="269.50" x2="412.00" y2="269.50" stroke="#1a1a1a" stroke-width="0.35" stroke-linecap="round"/>
<text x="228.50" y="265.50" font-family="Liberation Sans, Arial, sans-serif" font-size="2.00" fill="#1a1a1a" text-anchor="start">LOKASI / PEKERJAAN :</text>
<line x1="253.00" y1="267.10" x2="410.50" y2="267.10" stroke="#1a1a1a" stroke-width="0.15" stroke-linecap="round"/>
<line x1="253.00" y1="263.90" x2="410.50" y2="263.90" stroke="#1a1a1a" stroke-width="0.15" stroke-linecap="round"/>
<text x="253.50" y="265.00" font-family="Liberation Sans, Arial, sans-serif" font-size="1.60" fill="#666666" text-anchor="start">( diisi sesuai lokasi proyek )</text>
<line x1="227.00" y1="276.00" x2="412.00" y2="276.00" stroke="#1a1a1a" stroke-width="0.35" stroke-linecap="round"/>
<text x="228.50" y="273.90" font-family="Liberation Sans, Arial, sans-serif" font-size="2.00" fill="#1a1a1a" text-anchor="start">JUDUL GAMBAR :</text>
<text x="253.50" y="274.10" font-family="Liberation Sans, Arial, sans-serif" font-size="2.80" fill="#1a1a1a" text-anchor="start" font-weight="bold">TAMPAK SAMPING — POTONGAN A-A (SUMBU 2)</text>
<line x1="274.00" y1="276.00" x2="274.00" y2="289.00" stroke="#1a1a1a" stroke-width="0.35" stroke-linecap="round"/>
<line x1="303.00" y1="276.00" x2="303.00" y2="289.00" stroke="#1a1a1a" stroke-width="0.35" stroke-linecap="round"/>
<line x1="327.00" y1="276.00" x2="327.00" y2="289.00" stroke="#1a1a1a" stroke-width="0.35" stroke-linecap="round"/>
<line x1="359.00" y1="276.00" x2="359.00" y2="289.00" stroke="#1a1a1a" stroke-width="0.35" stroke-linecap="round"/>
<line x1="387.00" y1="276.00" x2="387.00" y2="289.00" stroke="#1a1a1a" stroke-width="0.35" stroke-linecap="round"/>
<line x1="227.00" y1="278.60" x2="412.00" y2="278.60" stroke="#1a1a1a" stroke-width="0.35" stroke-linecap="round"/>
<text x="228.20" y="277.90" font-family="Liberation Sans, Arial, sans-serif" font-size="1.50" fill="#1a1a1a" text-anchor="start">NO. GAMBAR</text>
<text x="275.20" y="277.90" font-family="Liberation Sans, Arial, sans-serif" font-size="1.50" fill="#1a1a1a" text-anchor="start">SKALA</text>
<text x="304.20" y="277.90" font-family="Liberation Sans, Arial, sans-serif" font-size="1.50" fill="#1a1a1a" text-anchor="start">SAT.</text>
<text x="328.20" y="277.90" font-family="Liberation Sans, Arial, sans-serif" font-size="1.50" fill="#1a1a1a" text-anchor="start">TANGGAL</text>
<text x="360.20" y="277.90" font-family="Liberation Sans, Arial, sans-serif" font-size="1.50" fill="#1a1a1a" text-anchor="start">REVISI</text>
<text x="388.20" y="277.90" font-family="Liberation Sans, Arial, sans-serif" font-size="1.50" fill="#1a1a1a" text-anchor="start">STATUS</text>
<text x="228.20" y="285.05" font-family="Liberation Sans, Arial, sans-serif" font-size="4.20" fill="#1a1a1a" text-anchor="start" font-weight="bold">G-03</text>
<text x="275.20" y="285.05" font-family="Liberation Sans, Arial, sans-serif" font-size="3.40" fill="#1a1a1a" text-anchor="start" font-weight="bold">1 : 100</text>
<text x="304.20" y="285.05" font-family="Liberation Sans, Arial, sans-serif" font-size="3.00" fill="#1a1a1a" text-anchor="start" font-weight="bold">mm</text>
<text x="328.20" y="285.05" font-family="Liberation Sans, Arial, sans-serif" font-size="2.60" fill="#1a1a1a" text-anchor="start">18-09-2026</text>
<text x="360.20" y="285.05" font-family="Liberation Sans, Arial, sans-serif" font-size="3.00" fill="#1a1a1a" text-anchor="start" font-weight="bold">0</text>
<text x="388.20" y="285.05" font-family="Liberation Sans, Arial, sans-serif" font-size="2.20" fill="#1a1a1a" text-anchor="start">KONSTRUKSI</text>
<text x="28.00" y="285.50" font-family="Liberation Sans, Arial, sans-serif" font-size="2.20" fill="#666666" text-anchor="start" font-weight="bold">G-03 — TAMPAK SAMPING (POTONGAN A-A)</text>
<text x="410.50" y="285.50" font-family="Liberation Sans, Arial, sans-serif" font-size="2.00" fill="#666666" text-anchor="end">SEMUA UKURAN DALAM mm</text>
<path d="M89.55,167.50 L92.55,167.50 L94.05,172.50 L88.05,172.50 Z" fill="#efeeea" stroke="#1a1a1a" stroke-width="0.35" stroke-linejoin="round" stroke-linecap="round"/>
<defs><clipPath id="h1118137"><path d="M89.55,167.50 L92.55,167.50 L94.05,172.50 L88.05,172.50 Z"/></clipPath></defs>
<line x1="92.32" y1="157.69" x2="103.36" y2="168.73" stroke="#1a1a1a" stroke-width="0.22" clip-path="url(#h1118137)"/>
<line x1="91.47" y1="158.54" x2="102.51" y2="169.58" stroke="#1a1a1a" stroke-width="0.22" clip-path="url(#h1118137)"/>
<line x1="90.62" y1="159.39" x2="101.67" y2="170.43" stroke="#1a1a1a" stroke-width="0.22" clip-path="url(#h1118137)"/>
<line x1="89.77" y1="160.23" x2="100.82" y2="171.28" stroke="#1a1a1a" stroke-width="0.22" clip-path="url(#h1118137)"/>
<line x1="88.92" y1="161.08" x2="99.97" y2="172.13" stroke="#1a1a1a" stroke-width="0.22" clip-path="url(#h1118137)"/>
<line x1="88.07" y1="161.93" x2="99.12" y2="172.98" stroke="#1a1a1a" stroke-width="0.22" clip-path="url(#h1118137)"/>
<line x1="87.23" y1="162.78" x2="98.27" y2="173.83" stroke="#1a1a1a" stroke-width="0.22" clip-path="url(#h1118137)"/>
<line x1="86.38" y1="163.63" x2="97.42" y2="174.67" stroke="#1a1a1a" stroke-width="0.22" clip-path="url(#h1118137)"/>
<line x1="85.53" y1="164.48" x2="96.57" y2="175.52" stroke="#1a1a1a" stroke-width="0.22" clip-path="url(#h1118137)"/>
<line x1="84.68" y1="165.33" x2="95.73" y2="176.37" stroke="#1a1a1a" stroke-width="0.22" clip-path="url(#h1118137)"/>
<line x1="83.83" y1="166.17" x2="94.88" y2="177.22" stroke="#1a1a1a" stroke-width="0.22" clip-path="url(#h1118137)"/>
<line x1="82.98" y1="167.02" x2="94.03" y2="178.07" stroke="#1a1a1a" stroke-width="0.22" clip-path="url(#h1118137)"/>
<line x1="82.14" y1="167.87" x2="93.18" y2="178.92" stroke="#1a1a1a" stroke-width="0.22" clip-path="url(#h1118137)"/>
<line x1="81.29" y1="168.72" x2="92.33" y2="179.77" stroke="#1a1a1a" stroke-width="0.22" clip-path="url(#h1118137)"/>
<line x1="80.44" y1="169.57" x2="91.48" y2="180.61" stroke="#1a1a1a" stroke-width="0.22" clip-path="url(#h1118137)"/>
<line x1="79.59" y1="170.42" x2="90.63" y2="181.46" stroke="#1a1a1a" stroke-width="0.22" clip-path="url(#h1118137)"/>
<line x1="78.74" y1="171.27" x2="89.79" y2="182.31" stroke="#1a1a1a" stroke-width="0.22" clip-path="url(#h1118137)"/>
<path d="M99.45,167.50 L102.45,167.50 L103.95,172.50 L97.95,172.50 Z" fill="#efeeea" stroke="#1a1a1a" stroke-width="0.35" stroke-linejoin="round" stroke-linecap="round"/>
<defs><clipPath id="h13290056"><path d="M99.45,167.50 L102.45,167.50 L103.95,172.50 L97.95,172.50 Z"/></clipPath></defs>
<line x1="102.22" y1="157.69" x2="113.26" y2="168.73" stroke="#1a1a1a" stroke-width="0.22" clip-path="url(#h13290056)"/>
<line x1="101.37" y1="158.54" x2="112.41" y2="169.58" stroke="#1a1a1a" stroke-width="0.22" clip-path="url(#h13290056)"/>
<line x1="100.52" y1="159.39" x2="111.57" y2="170.43" stroke="#1a1a1a" stroke-width="0.22" clip-path="url(#h13290056)"/>
<line x1="99.67" y1="160.23" x2="110.72" y2="171.28" stroke="#1a1a1a" stroke-width="0.22" clip-path="url(#h13290056)"/>
<line x1="98.82" y1="161.08" x2="109.87" y2="172.13" stroke="#1a1a1a" stroke-width="0.22" clip-path="url(#h13290056)"/>
<line x1="97.97" y1="161.93" x2="109.02" y2="172.98" stroke="#1a1a1a" stroke-width="0.22" clip-path="url(#h13290056)"/>
<line x1="97.13" y1="162.78" x2="108.17" y2="173.83" stroke="#1a1a1a" stroke-width="0.22" clip-path="url(#h13290056)"/>
<line x1="96.28" y1="163.63" x2="107.32" y2="174.67" stroke="#1a1a1a" stroke-width="0.22" clip-path="url(#h13290056)"/>
<line x1="95.43" y1="164.48" x2="106.47" y2="175.52" stroke="#1a1a1a" stroke-width="0.22" clip-path="url(#h13290056)"/>
<line x1="94.58" y1="165.33" x2="105.63" y2="176.37" stroke="#1a1a1a" stroke-width="0.22" clip-path="url(#h13290056)"/>
<line x1="93.73" y1="166.17" x2="104.78" y2="177.22" stroke="#1a1a1a" stroke-width="0.22" clip-path="url(#h13290056)"/>
<line x1="92.88" y1="167.02" x2="103.93" y2="178.07" stroke="#1a1a1a" stroke-width="0.22" clip-path="url(#h13290056)"/>
<line x1="92.04" y1="167.87" x2="103.08" y2="178.92" stroke="#1a1a1a" stroke-width="0.22" clip-path="url(#h13290056)"/>
<line x1="91.19" y1="168.72" x2="102.23" y2="179.77" stroke="#1a1a1a" stroke-width="0.22" clip-path="url(#h13290056)"/>
<line x1="90.34" y1="169.57" x2="101.38" y2="180.61" stroke="#1a1a1a" stroke-width="0.22" clip-path="url(#h13290056)"/>
<line x1="89.49" y1="170.42" x2="100.53" y2="181.46" stroke="#1a1a1a" stroke-width="0.22" clip-path="url(#h13290056)"/>
<line x1="88.64" y1="171.27" x2="99.69" y2="182.31" stroke="#1a1a1a" stroke-width="0.22" clip-path="url(#h13290056)"/>
<line x1="82.00" y1="167.50" x2="111.50" y2="167.50" stroke="#1a1a1a" stroke-width="0.22" stroke-linecap="round"/>
<line x1="82.00" y1="167.50" x2="82.90" y2="169.10" stroke="#1a1a1a" stroke-width="0.22" stroke-linecap="round"/>
<line x1="83.60" y1="167.50" x2="84.50" y2="169.10" stroke="#1a1a1a" stroke-width="0.22" stroke-linecap="round"/>
<line x1="85.20" y1="167.50" x2="86.10" y2="169.10" stroke="#1a1a1a" stroke-width="0.22" stroke-linecap="round"/>
<line x1="86.80" y1="167.50" x2="87.70" y2="169.10" stroke="#1a1a1a" stroke-width="0.22" stroke-linecap="round"/>
<line x1="88.40" y1="167.50" x2="89.30" y2="169.10" stroke="#1a1a1a" stroke-width="0.22" stroke-linecap="round"/>
<line x1="90.00" y1="167.50" x2="90.90" y2="169.10" stroke="#1a1a1a" stroke-width="0.22" stroke-linecap="round"/>
<line x1="91.60" y1="167.50" x2="92.50" y2="169.10" stroke="#1a1a1a" stroke-width="0.22" stroke-linecap="round"/>
<line x1="93.20" y1="167.50" x2="94.10" y2="169.10" stroke="#1a1a1a" stroke-width="0.22" stroke-linecap="round"/>
<line x1="94.80" y1="167.50" x2="95.70" y2="169.10" stroke="#1a1a1a" stroke-width="0.22" stroke-linecap="round"/>
<line x1="96.40" y1="167.50" x2="97.30" y2="169.10" stroke="#1a1a1a" stroke-width="0.22" stroke-linecap="round"/>
<line x1="98.00" y1="167.50" x2="98.90" y2="169.10" stroke="#1a1a1a" stroke-width="0.22" stroke-linecap="round"/>
<line x1="99.60" y1="167.50" x2="100.50" y2="169.10" stroke="#1a1a1a" stroke-width="0.22" stroke-linecap="round"/>
<line x1="101.20" y1="167.50" x2="102.10" y2="169.10" stroke="#1a1a1a" stroke-width="0.22" stroke-linecap="round"/>
<line x1="102.80" y1="167.50" x2="103.70" y2="169.10" stroke="#1a1a1a" stroke-width="0.22" stroke-linecap="round"/>
<line x1="104.40" y1="167.50" x2="105.30" y2="169.10" stroke="#1a1a1a" stroke-width="0.22" stroke-linecap="round"/>
<line x1="106.00" y1="167.50" x2="106.90" y2="169.10" stroke="#1a1a1a" stroke-width="0.22" stroke-linecap="round"/>
<line x1="107.60" y1="167.50" x2="108.50" y2="169.10" stroke="#1a1a1a" stroke-width="0.22" stroke-linecap="round"/>
<line x1="109.20" y1="167.50" x2="110.10" y2="169.10" stroke="#1a1a1a" stroke-width="0.22" stroke-linecap="round"/>
<line x1="110.80" y1="167.50" x2="111.70" y2="169.10" stroke="#1a1a1a" stroke-width="0.22" stroke-linecap="round"/>
<rect x="85.55" y="166.50" width="2.50" height="1.00" fill="#f7f6f3" stroke="#1a1a1a" stroke-width="0.22"/>
<defs><clipPath id="h9357662"><path d="M85.55,166.50 L88.05,166.50 L88.05,167.50 L85.55,167.50 Z"/></clipPath></defs>
<line x1="81.72" y1="165.72" x2="85.52" y2="161.91" stroke="#1a1a1a" stroke-width="0.22" clip-path="url(#h9357662)"/>
<line x1="82.78" y1="166.78" x2="86.58" y2="162.97" stroke="#1a1a1a" stroke-width="0.22" clip-path="url(#h9357662)"/>
<line x1="83.84" y1="167.84" x2="87.65" y2="164.04" stroke="#1a1a1a" stroke-width="0.22" clip-path="url(#h9357662)"/>
<line x1="84.90" y1="168.90" x2="88.71" y2="165.10" stroke="#1a1a1a" stroke-width="0.22" clip-path="url(#h9357662)"/>
<line x1="85.96" y1="169.96" x2="89.77" y2="166.16" stroke="#1a1a1a" stroke-width="0.22" clip-path="url(#h9357662)"/>
<line x1="87.02" y1="171.03" x2="90.83" y2="167.22" stroke="#1a1a1a" stroke-width="0.22" clip-path="url(#h9357662)"/>
<line x1="88.08" y1="172.09" x2="91.89" y2="168.28" stroke="#1a1a1a" stroke-width="0.22" clip-path="url(#h9357662)"/>
<rect x="103.95" y="166.50" width="2.50" height="1.00" fill="#f7f6f3" stroke="#1a1a1a" stroke-width="0.22"/>
<defs><clipPath id="h6557736"><path d="M103.95,166.50 L106.45,166.50 L106.45,167.50 L103.95,167.50 Z"/></clipPath></defs>
<line x1="100.12" y1="165.72" x2="103.92" y2="161.91" stroke="#1a1a1a" stroke-width="0.22" clip-path="url(#h6557736)"/>
<line x1="101.18" y1="166.78" x2="104.98" y2="162.97" stroke="#1a1a1a" stroke-width="0.22" clip-path="url(#h6557736)"/>
<line x1="102.24" y1="167.84" x2="106.05" y2="164.04" stroke="#1a1a1a" stroke-width="0.22" clip-path="url(#h6557736)"/>
<line x1="103.30" y1="168.90" x2="107.11" y2="165.10" stroke="#1a1a1a" stroke-width="0.22" clip-path="url(#h6557736)"/>
<line x1="104.36" y1="169.96" x2="108.17" y2="166.16" stroke="#1a1a1a" stroke-width="0.22" clip-path="url(#h6557736)"/>
<line x1="105.42" y1="171.03" x2="109.23" y2="167.22" stroke="#1a1a1a" stroke-width="0.22" clip-path="url(#h6557736)"/>
<line x1="106.48" y1="172.09" x2="110.29" y2="168.28" stroke="#1a1a1a" stroke-width="0.22" clip-path="url(#h6557736)"/>
<path d="M89.55,165.00 L92.55,165.00 L92.55,167.50 L89.55,167.50 Z" fill="none" stroke="#1a1a1a" stroke-width="0.7" stroke-linejoin="round" stroke-linecap="round"/>
<defs><clipPath id="h16279654"><path d="M89.55,165.00 L92.55,165.00 L92.55,167.50 L89.55,167.50 Z"/></clipPath></defs>
<line x1="92.36" y1="159.42" x2="97.88" y2="164.95" stroke="#1a1a1a" stroke-width="0.22" clip-path="url(#h16279654)"/>
<line x1="91.54" y1="160.24" x2="97.07" y2="165.76" stroke="#1a1a1a" stroke-width="0.22" clip-path="url(#h16279654)"/>
<line x1="90.73" y1="161.05" x2="96.25" y2="166.57" stroke="#1a1a1a" stroke-width="0.22" clip-path="url(#h16279654)"/>
<line x1="89.92" y1="161.86" x2="95.44" y2="167.38" stroke="#1a1a1a" stroke-width="0.22" clip-path="url(#h16279654)"/>
<line x1="89.10" y1="162.68" x2="94.63" y2="168.20" stroke="#1a1a1a" stroke-width="0.22" clip-path="url(#h16279654)"/>
<line x1="88.29" y1="163.49" x2="93.81" y2="169.01" stroke="#1a1a1a" stroke-width="0.22" clip-path="url(#h16279654)"/>
<line x1="87.48" y1="164.30" x2="93.00" y2="169.82" stroke="#1a1a1a" stroke-width="0.22" clip-path="url(#h16279654)"/>
<line x1="86.66" y1="165.12" x2="92.19" y2="170.64" stroke="#1a1a1a" stroke-width="0.22" clip-path="url(#h16279654)"/>
<line x1="85.85" y1="165.93" x2="91.37" y2="171.45" stroke="#1a1a1a" stroke-width="0.22" clip-path="url(#h16279654)"/>
<line x1="85.04" y1="166.74" x2="90.56" y2="172.26" stroke="#1a1a1a" stroke-width="0.22" clip-path="url(#h16279654)"/>
<line x1="84.22" y1="167.55" x2="89.75" y2="173.08" stroke="#1a1a1a" stroke-width="0.22" clip-path="url(#h16279654)"/>
<path d="M99.45,165.00 L102.45,165.00 L102.45,167.50 L99.45,167.50 Z" fill="none" stroke="#1a1a1a" stroke-width="0.7" stroke-linejoin="round" stroke-linecap="round"/>
<defs><clipPath id="h6423374"><path d="M99.45,165.00 L102.45,165.00 L102.45,167.50 L99.45,167.50 Z"/></clipPath></defs>
<line x1="102.26" y1="159.42" x2="107.78" y2="164.95" stroke="#1a1a1a" stroke-width="0.22" clip-path="url(#h6423374)"/>
<line x1="101.44" y1="160.24" x2="106.97" y2="165.76" stroke="#1a1a1a" stroke-width="0.22" clip-path="url(#h6423374)"/>
<line x1="100.63" y1="161.05" x2="106.15" y2="166.57" stroke="#1a1a1a" stroke-width="0.22" clip-path="url(#h6423374)"/>
<line x1="99.82" y1="161.86" x2="105.34" y2="167.38" stroke="#1a1a1a" stroke-width="0.22" clip-path="url(#h6423374)"/>
<line x1="99.00" y1="162.68" x2="104.53" y2="168.20" stroke="#1a1a1a" stroke-width="0.22" clip-path="url(#h6423374)"/>
<line x1="98.19" y1="163.49" x2="103.71" y2="169.01" stroke="#1a1a1a" stroke-width="0.22" clip-path="url(#h6423374)"/>
<line x1="97.38" y1="164.30" x2="102.90" y2="169.82" stroke="#1a1a1a" stroke-width="0.22" clip-path="url(#h6423374)"/>
<line x1="96.56" y1="165.12" x2="102.09" y2="170.64" stroke="#1a1a1a" stroke-width="0.22" clip-path="url(#h6423374)"/>
<line x1="95.75" y1="165.93" x2="101.27" y2="171.45" stroke="#1a1a1a" stroke-width="0.22" clip-path="url(#h6423374)"/>
<line x1="94.94" y1="166.74" x2="100.46" y2="172.26" stroke="#1a1a1a" stroke-width="0.22" clip-path="url(#h6423374)"/>
<line x1="94.12" y1="167.55" x2="99.65" y2="173.08" stroke="#1a1a1a" stroke-width="0.22" clip-path="url(#h6423374)"/>
<rect x="92.55" y="165.00" width="6.90" height="2.50" fill="none" stroke="#1a1a1a" stroke-width="0.35"/>
<line x1="92.55" y1="166.25" x2="99.45" y2="166.25" stroke="#1a1a1a" stroke-width="0.22" stroke-linecap="round"/>
<line x1="92.55" y1="166.25" x2="99.45" y2="166.25" stroke="#1a1a1a" stroke-width="0.22" stroke-linecap="round"/>
<rect x="90.55" y="164.95" width="1.00" height="0.25" fill="#1a1a1a" stroke="#1a1a1a" stroke-width="0.5"/>
<line x1="90.80" y1="165.00" x2="90.80" y2="165.80" stroke="#1a1a1a" stroke-width="0.22" stroke-linecap="round"/>
<line x1="91.30" y1="165.00" x2="91.30" y2="165.80" stroke="#1a1a1a" stroke-width="0.22" stroke-linecap="round"/>
<line x1="91.05" y1="165.00" x2="91.05" y2="154.10" stroke="#1a1a1a" stroke-width="0.5" stroke-linecap="round"/>
<rect x="90.90" y="154.10" width="0.30" height="0.40" fill="#1a1a1a" stroke="#1a1a1a" stroke-width="0.5"/>
<rect x="100.45" y="164.95" width="1.00" height="0.25" fill="#1a1a1a" stroke="#1a1a1a" stroke-width="0.5"/>
<line x1="100.70" y1="165.00" x2="100.70" y2="165.80" stroke="#1a1a1a" stroke-width="0.22" stroke-linecap="round"/>
<line x1="101.20" y1="165.00" x2="101.20" y2="165.80" stroke="#1a1a1a" stroke-width="0.22" stroke-linecap="round"/>
<line x1="100.95" y1="165.00" x2="100.95" y2="151.45" stroke="#1a1a1a" stroke-width="0.5" stroke-linecap="round"/>
<rect x="100.80" y="151.45" width="0.30" height="0.40" fill="#1a1a1a" stroke="#1a1a1a" stroke-width="0.5"/>
<line x1="91.05" y1="163.50" x2="100.95" y2="154.50" stroke="#1a1a1a" stroke-width="0.35" stroke-linecap="round"/>
<rect x="95.00" y="158.00" width="2.00" height="3.00" fill="#c9cdd2" stroke="#1a1a1a" stroke-width="0.5"/>
<circle cx="95.50" cy="159.00" r="0.25" fill="#c0392b" stroke="#1a1a1a" stroke-width="0.22"/>
<circle cx="96.50" cy="159.00" r="0.25" fill="#1e8449" stroke="#1a1a1a" stroke-width="0.22"/>
<line x1="95.00" y1="161.00" x2="91.05" y2="163.50" stroke="#1a1a1a" stroke-width="0.22" stroke-linecap="round"/>
<line x1="97.00" y1="161.00" x2="100.95" y2="159.20" stroke="#1a1a1a" stroke-width="0.22" stroke-linecap="round"/>
<line x1="85.00" y1="155.27" x2="107.00" y2="149.38" stroke="#3d4f60" stroke-width="0.5" stroke-linecap="round"/>
<line x1="85.00" y1="155.27" x2="107.00" y2="149.38" stroke="#1a1a1a" stroke-width="0.5" stroke-linecap="round"/>
<path d="M107.90,165.00 L109.50,165.00 L109.50,166.28 Z" fill="none" stroke="#1a1a1a" stroke-width="0.22" stroke-linejoin="round" stroke-linecap="round"/>
<line x1="109.50" y1="165.00" x2="115.50" y2="165.00" stroke="#1a1a1a" stroke-width="0.15" stroke-linecap="round"/>
<text x="115.90" y="164.50" font-family="Liberation Sans, Arial, sans-serif" font-size="2.20" fill="#1a1a1a" text-anchor="start">+0.15</text>
<path d="M107.90,166.50 L109.50,166.50 L109.50,167.78 Z" fill="none" stroke="#1a1a1a" stroke-width="0.22" stroke-linejoin="round" stroke-linecap="round"/>
<line x1="109.50" y1="166.50" x2="115.50" y2="166.50" stroke="#1a1a1a" stroke-width="0.15" stroke-linecap="round"/>
<text x="115.90" y="166.00" font-family="Liberation Sans, Arial, sans-serif" font-size="2.20" fill="#1a1a1a" text-anchor="start">±0.00</text>
<path d="M107.90,172.50 L109.50,172.50 L109.50,173.78 Z" fill="none" stroke="#1a1a1a" stroke-width="0.22" stroke-linejoin="round" stroke-linecap="round"/>
<line x1="109.50" y1="172.50" x2="115.50" y2="172.50" stroke="#1a1a1a" stroke-width="0.15" stroke-linecap="round"/>
<text x="115.90" y="172.00" font-family="Liberation Sans, Arial, sans-serif" font-size="2.20" fill="#1a1a1a" text-anchor="start">-0.60</text>
<line x1="85.00" y1="155.27" x2="77.90" y2="155.27" stroke="#1a1a1a" stroke-width="0.15" stroke-linecap="round"/>
<line x1="85.00" y1="165.00" x2="77.90" y2="165.00" stroke="#1a1a1a" stroke-width="0.15" stroke-linecap="round"/>
<line x1="77.00" y1="155.27" x2="77.00" y2="165.00" stroke="#1a1a1a" stroke-width="0.15" stroke-linecap="round"/>
<path d="M77.00,155.27 L77.18,153.68 L78.16,154.18 Z" fill="#1a1a1a" stroke="none"/>
<path d="M77.00,165.00 L78.16,166.10 L77.18,166.59 Z" fill="#1a1a1a" stroke="none"/>
<text x="75.60" y="160.14" font-family="Liberation Sans, Arial, sans-serif" font-size="2.20" fill="#1a1a1a" text-anchor="middle" transform="rotate(-90 75.60 160.14)">973</text>
<line x1="85.00" y1="153.65" x2="72.90" y2="153.65" stroke="#1a1a1a" stroke-width="0.15" stroke-linecap="round"/>
<line x1="91.05" y1="165.00" x2="72.90" y2="165.00" stroke="#1a1a1a" stroke-width="0.15" stroke-linecap="round"/>
<line x1="72.00" y1="153.65" x2="72.00" y2="165.00" stroke="#1a1a1a" stroke-width="0.15" stroke-linecap="round"/>
<path d="M72.00,153.65 L72.18,152.06 L73.16,152.55 Z" fill="#1a1a1a" stroke="none"/>
<path d="M72.00,165.00 L73.16,166.10 L72.18,166.59 Z" fill="#1a1a1a" stroke="none"/>
<text x="70.60" y="159.33" font-family="Liberation Sans, Arial, sans-serif" font-size="2.20" fill="#1a1a1a" text-anchor="middle" transform="rotate(-90 70.60 159.33)">1135</text>
<line x1="85.00" y1="151.00" x2="67.90" y2="151.00" stroke="#1a1a1a" stroke-width="0.15" stroke-linecap="round"/>
<line x1="100.95" y1="165.00" x2="67.90" y2="165.00" stroke="#1a1a1a" stroke-width="0.15" stroke-linecap="round"/>
<line x1="67.00" y1="151.00" x2="67.00" y2="165.00" stroke="#1a1a1a" stroke-width="0.15" stroke-linecap="round"/>
<path d="M67.00,151.00 L67.18,149.41 L68.16,149.90 Z" fill="#1a1a1a" stroke="none"/>
<path d="M67.00,165.00 L68.16,166.10 L67.18,166.59 Z" fill="#1a1a1a" stroke="none"/>
<text x="65.60" y="158.00" font-family="Liberation Sans, Arial, sans-serif" font-size="2.20" fill="#1a1a1a" text-anchor="middle" transform="rotate(-90 65.60 158.00)">1400</text>
<line x1="107.00" y1="149.38" x2="62.90" y2="149.38" stroke="#1a1a1a" stroke-width="0.15" stroke-linecap="round"/>
<line x1="107.00" y1="165.00" x2="62.90" y2="165.00" stroke="#1a1a1a" stroke-width="0.15" stroke-linecap="round"/>
<line x1="62.00" y1="149.38" x2="62.00" y2="165.00" stroke="#1a1a1a" stroke-width="0.15" stroke-linecap="round"/>
<path d="M62.00,149.38 L62.18,147.79 L63.16,148.28 Z" fill="#1a1a1a" stroke="none"/>
<path d="M62.00,165.00 L63.16,166.10 L62.18,166.59 Z" fill="#1a1a1a" stroke="none"/>
<text x="60.60" y="157.19" font-family="Liberation Sans, Arial, sans-serif" font-size="2.20" fill="#1a1a1a" text-anchor="middle" transform="rotate(-90 60.60 157.19)">1563</text>
<line x1="85.00" y1="172.50" x2="85.00" y2="177.60" stroke="#1a1a1a" stroke-width="0.15" stroke-linecap="round"/>
<line x1="91.05" y1="167.50" x2="91.05" y2="177.60" stroke="#1a1a1a" stroke-width="0.15" stroke-linecap="round"/>
<line x1="85.00" y1="178.50" x2="91.05" y2="178.50" stroke="#1a1a1a" stroke-width="0.15" stroke-linecap="round"/>
<path d="M85.00,178.50 L83.50,179.05 L83.50,177.95 Z" fill="#1a1a1a" stroke="none"/>
<path d="M91.05,178.50 L92.39,179.38 L91.51,180.03 Z" fill="#1a1a1a" stroke="none"/>
<text x="88.03" y="177.75" font-family="Liberation Sans, Arial, sans-serif" font-size="2.20" fill="#1a1a1a" text-anchor="middle">605</text>
<line x1="91.05" y1="172.50" x2="91.05" y2="177.60" stroke="#1a1a1a" stroke-width="0.15" stroke-linecap="round"/>
<line x1="100.95" y1="172.50" x2="100.95" y2="177.60" stroke="#1a1a1a" stroke-width="0.15" stroke-linecap="round"/>
<line x1="91.05" y1="178.50" x2="100.95" y2="178.50" stroke="#1a1a1a" stroke-width="0.15" stroke-linecap="round"/>
<path d="M91.05,178.50 L89.55,179.05 L89.55,177.95 Z" fill="#1a1a1a" stroke="none"/>
<path d="M100.95,178.50 L102.29,179.38 L101.41,180.03 Z" fill="#1a1a1a" stroke="none"/>
<text x="96.00" y="177.75" font-family="Liberation Sans, Arial, sans-serif" font-size="2.20" fill="#1a1a1a" text-anchor="middle">990</text>
<line x1="100.95" y1="172.50" x2="100.95" y2="177.60" stroke="#1a1a1a" stroke-width="0.15" stroke-linecap="round"/>
<line x1="107.00" y1="167.50" x2="107.00" y2="177.60" stroke="#1a1a1a" stroke-width="0.15" stroke-linecap="round"/>
<line x1="100.95" y1="178.50" x2="107.00" y2="178.50" stroke="#1a1a1a" stroke-width="0.15" stroke-linecap="round"/>
<path d="M100.95,178.50 L99.45,179.05 L99.45,177.95 Z" fill="#1a1a1a" stroke="none"/>
<path d="M107.00,178.50 L108.34,179.38 L107.47,180.03 Z" fill="#1a1a1a" stroke="none"/>
<text x="103.98" y="177.75" font-family="Liberation Sans, Arial, sans-serif" font-size="2.20" fill="#1a1a1a" text-anchor="middle">605</text>
<line x1="85.00" y1="178.50" x2="85.00" y2="184.10" stroke="#1a1a1a" stroke-width="0.15" stroke-linecap="round"/>
<line x1="107.00" y1="178.50" x2="107.00" y2="184.10" stroke="#1a1a1a" stroke-width="0.15" stroke-linecap="round"/>
<line x1="85.00" y1="185.00" x2="107.00" y2="185.00" stroke="#1a1a1a" stroke-width="0.15" stroke-linecap="round"/>
<path d="M85.00,185.00 L83.50,185.55 L83.50,184.45 Z" fill="#1a1a1a" stroke="none"/>
<path d="M107.00,185.00 L108.34,185.88 L107.47,186.53 Z" fill="#1a1a1a" stroke="none"/>
<text x="96.00" y="184.25" font-family="Liberation Sans, Arial, sans-serif" font-size="2.20" fill="#1a1a1a" text-anchor="middle">2200</text>
<line x1="84.79" y1="154.50" x2="84.28" y2="152.57" stroke="#1a1a1a" stroke-width="0.15" stroke-linecap="round"/>
<line x1="106.80" y1="148.61" x2="106.28" y2="146.67" stroke="#1a1a1a" stroke-width="0.15" stroke-linecap="round"/>
<line x1="84.28" y1="152.57" x2="106.28" y2="146.67" stroke="#1a1a1a" stroke-width="0.15" stroke-linecap="round"/>
<path d="M84.28,152.57 L82.96,153.49 L82.68,152.43 Z" fill="#1a1a1a" stroke="none"/>
<path d="M106.28,146.67 L107.59,145.76 L107.87,146.81 Z" fill="#1a1a1a" stroke="none"/>
<text x="95.28" y="149.62" font-family="Liberation Sans, Arial, sans-serif" font-size="2.20" fill="#1a1a1a" text-anchor="middle" transform="rotate(-14.999999999999964 95.28 149.62)">2278 (MODUL)</text>
<path d="M88.20,155.27 L88.20,155.22 L88.20,155.16 L88.20,155.11 L88.19,155.05 L88.19,155.00 L88.18,154.94 L88.18,154.88 L88.17,154.83 L88.16,154.77 L88.15,154.72 L88.14,154.66 L88.13,154.61 L88.12,154.55 L88.10,154.50 L88.09,154.45" fill="none" stroke="#1a1a1a" stroke-width="0.15" stroke-linejoin="round" stroke-linecap="round"/>
<line x1="85.00" y1="155.27" x2="90.00" y2="155.27" stroke="#1a1a1a" stroke-width="0.15" stroke-linecap="round"/>
<text x="89.00" y="151.67" font-family="Liberation Sans, Arial, sans-serif" font-size="2.20" fill="#1a1a1a" text-anchor="start">15°</text>
<line x1="85.55" y1="165.00" x2="85.55" y2="167.50" stroke="#1a1a1a" stroke-width="0.15" stroke-linecap="round"/>
<path d="M85.55,165.00 L85.74,163.41 L86.71,163.90 Z" fill="#1a1a1a" stroke="none"/>
<path d="M85.55,167.50 L86.71,168.60 L85.74,169.09 Z" fill="#1a1a1a" stroke="none"/>
<text x="86.95" y="166.25" font-family="Liberation Sans, Arial, sans-serif" font-size="2.20" fill="#1a1a1a" text-anchor="middle" transform="rotate(-90 86.95 166.25)">250</text>
<line x1="81.55" y1="167.50" x2="81.55" y2="172.50" stroke="#1a1a1a" stroke-width="0.15" stroke-linecap="round"/>
<path d="M81.55,167.50 L81.74,165.91 L82.71,166.40 Z" fill="#1a1a1a" stroke="none"/>
<path d="M81.55,172.50 L82.71,173.60 L81.74,174.09 Z" fill="#1a1a1a" stroke="none"/>
<text x="82.95" y="170.00" font-family="Liberation Sans, Arial, sans-serif" font-size="2.20" fill="#1a1a1a" text-anchor="middle" transform="rotate(-90 82.95 170.00)">500</text>
<line x1="89.55" y1="167.50" x2="89.55" y2="170.60" stroke="#1a1a1a" stroke-width="0.15" stroke-linecap="round"/>
<line x1="92.55" y1="167.50" x2="92.55" y2="170.60" stroke="#1a1a1a" stroke-width="0.15" stroke-linecap="round"/>
<line x1="89.55" y1="171.50" x2="92.55" y2="171.50" stroke="#1a1a1a" stroke-width="0.15" stroke-linecap="round"/>
<path d="M89.55,171.50 L88.05,172.05 L88.05,170.95 Z" fill="#1a1a1a" stroke="none"/>
<path d="M92.55,171.50 L93.89,172.38 L93.01,173.03 Z" fill="#1a1a1a" stroke="none"/>
<text x="91.05" y="172.47" font-family="Liberation Sans, Arial, sans-serif" font-size="2.20" fill="#1a1a1a" text-anchor="middle">300</text>
<line x1="88.05" y1="172.50" x2="88.05" y2="184.60" stroke="#1a1a1a" stroke-width="0.15" stroke-linecap="round"/>
<line x1="94.05" y1="172.50" x2="94.05" y2="184.60" stroke="#1a1a1a" stroke-width="0.15" stroke-linecap="round"/>
<line x1="88.05" y1="185.50" x2="94.05" y2="185.50" stroke="#1a1a1a" stroke-width="0.15" stroke-linecap="round"/>
<path d="M88.05,185.50 L86.55,186.05 L86.55,184.95 Z" fill="#1a1a1a" stroke="none"/>
<path d="M94.05,185.50 L95.39,186.38 L94.51,187.03 Z" fill="#1a1a1a" stroke="none"/>
<text x="91.05" y="186.47" font-family="Liberation Sans, Arial, sans-serif" font-size="2.20" fill="#1a1a1a" text-anchor="middle">600</text>
<line x1="88.05" y1="166.50" x2="87.95" y2="166.50" stroke="#1a1a1a" stroke-width="0.15" stroke-linecap="round"/>
<line x1="88.05" y1="167.50" x2="87.95" y2="167.50" stroke="#1a1a1a" stroke-width="0.15" stroke-linecap="round"/>
<line x1="87.05" y1="166.50" x2="87.05" y2="167.50" stroke="#1a1a1a" stroke-width="0.15" stroke-linecap="round"/>
<path d="M87.05,166.50 L87.24,164.91 L88.21,165.40 Z" fill="#1a1a1a" stroke="none"/>
<path d="M87.05,167.50 L88.21,168.60 L87.24,169.09 Z" fill="#1a1a1a" stroke="none"/>
<text x="88.45" y="167.00" font-family="Liberation Sans, Arial, sans-serif" font-size="2.20" fill="#1a1a1a" text-anchor="middle" transform="rotate(-90 88.45 167.00)">100</text>
<line x1="94.60" y1="161.00" x2="94.60" y2="165.00" stroke="#1a1a1a" stroke-width="0.15" stroke-linecap="round"/>
<path d="M94.60,161.00 L94.79,159.41 L95.76,159.90 Z" fill="#1a1a1a" stroke="none"/>
<path d="M94.60,165.00 L95.76,166.10 L94.79,166.59 Z" fill="#1a1a1a" stroke="none"/>
<text x="93.20" y="163.00" font-family="Liberation Sans, Arial, sans-serif" font-size="2.20" fill="#1a1a1a" text-anchor="middle" transform="rotate(-90 93.20 163.00)">400</text>
<line x1="94.60" y1="158.00" x2="94.60" y2="161.00" stroke="#1a1a1a" stroke-width="0.15" stroke-linecap="round"/>
<path d="M94.60,158.00 L94.79,156.41 L95.76,156.90 Z" fill="#1a1a1a" stroke="none"/>
<path d="M94.60,161.00 L95.76,162.10 L94.79,162.59 Z" fill="#1a1a1a" stroke="none"/>
<text x="93.20" y="159.50" font-family="Liberation Sans, Arial, sans-serif" font-size="2.20" fill="#1a1a1a" text-anchor="middle" transform="rotate(-90 93.20 159.50)">300</text>
<line x1="95.00" y1="155.80" x2="97.00" y2="155.80" stroke="#1a1a1a" stroke-width="0.15" stroke-linecap="round"/>
<path d="M95.00,155.80 L93.50,156.35 L93.50,155.25 Z" fill="#1a1a1a" stroke="none"/>
<path d="M97.00,155.80 L98.34,156.68 L97.46,157.33 Z" fill="#1a1a1a" stroke="none"/>
<text x="96.00" y="155.05" font-family="Liberation Sans, Arial, sans-serif" font-size="2.20" fill="#1a1a1a" text-anchor="middle">200</text>
<line x1="101.15" y1="149.40" x2="112.00" y2="140.00" stroke="#1a1a1a" stroke-width="0.15" stroke-linecap="round"/>
<path d="M101.15,149.40 L100.42,150.71 L99.75,149.94 Z" fill="#1a1a1a" stroke="none"/>
<text x="112.70" y="139.40" font-family="Liberation Sans, Arial, sans-serif" font-size="2.10" fill="#1a1a1a" text-anchor="start">KAKI &amp; RAIL BAJA HOLLOW 40 x 20</text>
<line x1="106.50" y1="148.98" x2="112.00" y2="145.00" stroke="#1a1a1a" stroke-width="0.15" stroke-linecap="round"/>
<path d="M106.50,148.98 L105.66,150.22 L105.06,149.39 Z" fill="#1a1a1a" stroke="none"/>
<text x="112.70" y="143.70" font-family="Liberation Sans, Arial, sans-serif" font-size="2.30" fill="#1a1a1a" text-anchor="start" font-weight="bold">2278 x 1134 x 35 — KEMIRINGAN 15°</text>
<text x="112.70" y="140.71" font-family="Liberation Sans, Arial, sans-serif" font-size="2.10" fill="#1a1a1a" text-anchor="start" font-weight="bold">MODUL SURYA 550 Wp</text>
<line x1="97.00" y1="156.80" x2="112.00" y2="150.00" stroke="#1a1a1a" stroke-width="0.15" stroke-linecap="round"/>
<path d="M97.00,156.80 L95.93,157.85 L95.51,156.91 Z" fill="#1a1a1a" stroke="none"/>
<text x="112.70" y="149.40" font-family="Liberation Sans, Arial, sans-serif" font-size="2.10" fill="#1a1a1a" text-anchor="start">PENGAKU HOLLOW 40 x 20 (3 BH)</text>
<line x1="97.00" y1="158.20" x2="112.00" y2="155.00" stroke="#1a1a1a" stroke-width="0.15" stroke-linecap="round"/>
<path d="M97.00,158.20 L95.73,159.00 L95.52,157.99 Z" fill="#1a1a1a" stroke="none"/>
<text x="112.70" y="154.40" font-family="Liberation Sans, Arial, sans-serif" font-size="2.10" fill="#1a1a1a" text-anchor="start">BOX PANEL CONTROL</text>
<line x1="102.75" y1="171.50" x2="112.00" y2="160.00" stroke="#1a1a1a" stroke-width="0.15" stroke-linecap="round"/>
<path d="M102.75,171.50 L102.27,172.92 L101.47,172.28 Z" fill="#1a1a1a" stroke="none"/>
<text x="112.70" y="158.70" font-family="Liberation Sans, Arial, sans-serif" font-size="2.10" fill="#1a1a1a" text-anchor="start">ATAS 30 / BAWAH 60 / DALAM 50 CM (6 TITIK)</text>
<text x="112.70" y="155.97" font-family="Liberation Sans, Arial, sans-serif" font-size="1.90" fill="#1a1a1a" text-anchor="start">PONDASI BATU KALI</text>
<line x1="101.45" y1="165.40" x2="112.00" y2="166.00" stroke="#1a1a1a" stroke-width="0.15" stroke-linecap="round"/>
<path d="M101.45,165.40 L100.02,165.83 L100.07,164.81 Z" fill="#1a1a1a" stroke="none"/>
<text x="112.70" y="164.70" font-family="Liberation Sans, Arial, sans-serif" font-size="2.10" fill="#1a1a1a" text-anchor="start">(4 BH / TITIK — 6 TITIK)</text>
<text x="112.70" y="161.97" font-family="Liberation Sans, Arial, sans-serif" font-size="1.90" fill="#1a1a1a" text-anchor="start">PLAT BESI 5 mm 100 x 100 + DYNABOLT M12</text>
<text x="115.00" y="175.00" font-family="Liberation Sans, Arial, sans-serif" font-size="2.00" fill="#1a1a1a" text-anchor="start">TANAH ASLI</text>
<line x1="90.05" y1="167.20" x2="83.00" y2="176.00" stroke="#1a1a1a" stroke-width="0.15" stroke-linecap="round"/>
<line x1="83.00" y1="176.00" x2="61.50" y2="176.00" stroke="#1a1a1a" stroke-width="0.15" stroke-linecap="round"/>
<path d="M90.05,167.20 L90.53,165.78 L91.33,166.42 Z" fill="#1a1a1a" stroke="none"/>
<text x="60.80" y="174.70" font-family="Liberation Sans, Arial, sans-serif" font-size="2.00" fill="#1a1a1a" text-anchor="end">(BETON 30/25 — K-225)</text>
<text x="60.80" y="172.10" font-family="Liberation Sans, Arial, sans-serif" font-size="2.00" fill="#1a1a1a" text-anchor="end">BALOK PONDASI RANGKA (SLOOF)</text>
<line x1="88.55" y1="166.80" x2="78.00" y2="182.00" stroke="#1a1a1a" stroke-width="0.15" stroke-linecap="round"/>
<line x1="78.00" y1="182.00" x2="61.50" y2="182.00" stroke="#1a1a1a" stroke-width="0.15" stroke-linecap="round"/>
<path d="M88.55,166.80 L88.93,165.35 L89.78,165.93 Z" fill="#1a1a1a" stroke="none"/>
<text x="60.80" y="181.40" font-family="Liberation Sans, Arial, sans-serif" font-size="2.00" fill="#1a1a1a" text-anchor="end">LANTAI KERJA BETON 10 CM</text>
<line x1="96.00" y1="167.30" x2="86.00" y2="188.00" stroke="#1a1a1a" stroke-width="0.15" stroke-linecap="round"/>
<line x1="86.00" y1="188.00" x2="61.50" y2="188.00" stroke="#1a1a1a" stroke-width="0.15" stroke-linecap="round"/>
<path d="M96.00,167.30 L96.15,165.81 L97.08,166.25 Z" fill="#1a1a1a" stroke="none"/>
<text x="60.80" y="187.40" font-family="Liberation Sans, Arial, sans-serif" font-size="2.00" fill="#1a1a1a" text-anchor="end">BALOK IKAT MELINTANG 30/25</text>
<text x="96.00" y="204.50" font-family="Liberation Sans, Arial, sans-serif" font-size="4.00" fill="#1a1a1a" text-anchor="middle" font-weight="bold" letter-spacing="0.5">TAMPAK SAMPING (POTONGAN A-A)</text>
<text x="96.00" y="208.70" font-family="Liberation Sans, Arial, sans-serif" font-size="2.40" fill="#1a1a1a" text-anchor="middle">SKALA 1 : 100</text>
<text x="96.00" y="212.50" font-family="Liberation Sans, Arial, sans-serif" font-size="2.00" fill="#555555" text-anchor="middle">POTONGAN PADA SUMBU 2 — DIPANDANG DARI BARAT (KE TIMUR)</text>
<text x="195.00" y="22.00" font-family="Liberation Sans, Arial, sans-serif" font-size="2.60" fill="#1a1a1a" text-anchor="start" font-weight="bold">CATATAN :</text>
<text x="195.00" y="26.20" font-family="Liberation Sans, Arial, sans-serif" font-size="2.05" fill="#1a1a1a" text-anchor="end">1.</text>
<text x="196.20" y="26.20" font-family="Liberation Sans, Arial, sans-serif" font-size="2.05" fill="#1a1a1a" text-anchor="start">Semua ukuran dalam milimeter (mm), elevasi dalam meter dari ±0.00 lantai kerja. Gambar menyempurnakan draft awal; dimensi antar tampak telah diserasikan.</text>
<text x="195.00" y="30.20" font-family="Liberation Sans, Arial, sans-serif" font-size="2.05" fill="#1a1a1a" text-anchor="end">2.</text>
<text x="196.20" y="30.20" font-family="Liberation Sans, Arial, sans-serif" font-size="2.05" fill="#1a1a1a" text-anchor="start">Modul surya 550 Wp sebanyak 5 unit (total 2,75 kWp), dipasang portrait, kemiringan 15 derajat menghadap UTARA (sesuaikan azimuth dengan lokasi site).</text>
<text x="195.00" y="34.20" font-family="Liberation Sans, Arial, sans-serif" font-size="2.05" fill="#1a1a1a" text-anchor="end">3.</text>
<text x="196.20" y="34.20" font-family="Liberation Sans, Arial, sans-serif" font-size="2.05" fill="#1a1a1a" text-anchor="start">Rangka seluruhnya baja hollow galvanis 40 x 20 mm (tebal min. 1,6 mm). Semua sambungan rangka DILAS dan diperiksa kerataannya.</text>
<text x="195.00" y="38.20" font-family="Liberation Sans, Arial, sans-serif" font-size="2.05" fill="#1a1a1a" text-anchor="end">4.</text>
<text x="196.20" y="38.20" font-family="Liberation Sans, Arial, sans-serif" font-size="2.05" fill="#1a1a1a" text-anchor="start">Kaki rangka diangkur ke sloof melalui plat besi 5 mm (100 x 100 mm) dengan 4 dynabolt M12 per titik. Pastikan plat rata &amp; level (toleransi ±5 mm).</text>
<text x="195.00" y="42.20" font-family="Liberation Sans, Arial, sans-serif" font-size="2.05" fill="#1a1a1a" text-anchor="end">5.</text>
<text x="196.20" y="42.20" font-family="Liberation Sans, Arial, sans-serif" font-size="2.05" fill="#1a1a1a" text-anchor="start">Sloof &amp; balok ikat beton mutu K-225, tulangan Ø8 mm, besi cincin (sengkang) jarak 15 cm. Semua struktur beton dituang monolit (disatukan).</text>
<text x="195.00" y="46.20" font-family="Liberation Sans, Arial, sans-serif" font-size="2.05" fill="#1a1a1a" text-anchor="end">6.</text>
<text x="196.20" y="46.20" font-family="Liberation Sans, Arial, sans-serif" font-size="2.05" fill="#1a1a1a" text-anchor="start">Pondasi batu kali 6 titik: lebar atas 30 cm, bawah 60 cm, kedalaman 50 cm di bawah sloof. Lantai kerja beton tebal 10 cm di sekeliling struktur.</text>
<text x="195.00" y="50.20" font-family="Liberation Sans, Arial, sans-serif" font-size="2.05" fill="#1a1a1a" text-anchor="end">7.</text>
<text x="196.20" y="50.20" font-family="Liberation Sans, Arial, sans-serif" font-size="2.05" fill="#1a1a1a" text-anchor="start">Jarak antar rangka (sumbu 1-2-3) 2285 mm; kantilever rail di ujung 550 mm. Rail memanjang 2 jalur di atas baris kaki.</text>
<text x="195.00" y="54.20" font-family="Liberation Sans, Arial, sans-serif" font-size="2.05" fill="#1a1a1a" text-anchor="end">8.</text>
<text x="196.20" y="54.20" font-family="Liberation Sans, Arial, sans-serif" font-size="2.05" fill="#1a1a1a" text-anchor="start">Pembumian (grounding) rangka &amp; modul serta instalasi kabel DC mengikuti PUIL 2011 dan petunjuk pabrikan modul.</text>
<text x="320.00" y="120.00" font-family="Liberation Sans, Arial, sans-serif" font-size="2.60" fill="#1a1a1a" text-anchor="start" font-weight="bold">LEGENDA :</text>
<line x1="320.00" y1="124.10" x2="329.00" y2="124.10" stroke="#1a1a1a" stroke-width="0.5" stroke-linecap="round"/>
<text x="331.50" y="124.60" font-family="Liberation Sans, Arial, sans-serif" font-size="2.05" fill="#1a1a1a" text-anchor="start">Tepi benda terlihat</text>
<line x1="320.00" y1="128.30" x2="329.00" y2="128.30" stroke="#1a1a1a" stroke-width="0.3" stroke-linecap="round" stroke-dasharray="2,1"/>
<text x="331.50" y="128.80" font-family="Liberation Sans, Arial, sans-serif" font-size="2.05" fill="#1a1a1a" text-anchor="start">Tepi benda tersembunyi</text>
<line x1="320.00" y1="132.50" x2="329.00" y2="132.50" stroke="#1a1a1a" stroke-width="0.15" stroke-linecap="round"/>
<text x="331.50" y="133.00" font-family="Liberation Sans, Arial, sans-serif" font-size="2.05" fill="#1a1a1a" text-anchor="start">Garis dimensi / leader</text>
<line x1="320.00" y1="136.70" x2="329.00" y2="136.70" stroke="#1a1a1a" stroke-width="0.15" stroke-linecap="round" stroke-dasharray="4,0.8,0.8"/>
<text x="331.50" y="137.20" font-family="Liberation Sans, Arial, sans-serif" font-size="2.05" fill="#1a1a1a" text-anchor="start">Garis sumbu</text>
<line x1="320.00" y1="140.90" x2="329.00" y2="140.90" stroke="#1a1a1a" stroke-width="0.22" stroke-linecap="round"/>
<text x="331.50" y="141.40" font-family="Liberation Sans, Arial, sans-serif" font-size="2.05" fill="#1a1a1a" text-anchor="start">Arsir beton / detail tipis</text>
<rect x="320.00" y="144.20" width="9.00" height="1.80" fill="#3d4f60" stroke="#1a1a1a" stroke-width="0.5"/>
<text x="331.50" y="145.60" font-family="Liberation Sans, Arial, sans-serif" font-size="2.05" fill="#1a1a1a" text-anchor="start">Kotak gelap : modul surya</text>
<line x1="320.00" y1="148.60" x2="329.00" y2="148.60" stroke="#1a1a1a" stroke-width="0.22" stroke-linecap="round"/>
<line x1="320.00" y1="148.60" x2="320.90" y2="149.08" stroke="#1a1a1a" stroke-width="0.22" stroke-linecap="round"/>
<line x1="321.60" y1="148.60" x2="322.50" y2="149.08" stroke="#1a1a1a" stroke-width="0.22" stroke-linecap="round"/>
<line x1="323.20" y1="148.60" x2="324.10" y2="149.08" stroke="#1a1a1a" stroke-width="0.22" stroke-linecap="round"/>
<line x1="324.80" y1="148.60" x2="325.70" y2="149.08" stroke="#1a1a1a" stroke-width="0.22" stroke-linecap="round"/>
<line x1="326.40" y1="148.60" x2="327.30" y2="149.08" stroke="#1a1a1a" stroke-width="0.22" stroke-linecap="round"/>
<line x1="328.00" y1="148.60" x2="328.90" y2="149.08" stroke="#1a1a1a" stroke-width="0.22" stroke-linecap="round"/>
<text x="331.50" y="150.60" font-family="Liberation Sans, Arial, sans-serif" font-size="2.05" fill="#1a1a1a" text-anchor="start">Tanah asli</text>
<text x="195.00" y="185.00" font-family="Liberation Sans, Arial, sans-serif" font-size="2.60" fill="#1a1a1a" text-anchor="start" font-weight="bold">DAFTAR LEMBAR GAMBAR :</text>
<text x="196.00" y="189.60" font-family="Liberation Sans, Arial, sans-serif" font-size="2.10" fill="#1a1a1a" text-anchor="start" font-weight="bold">G-01</text>
<text x="208.00" y="189.60" font-family="Liberation Sans, Arial, sans-serif" font-size="2.10" fill="#1a1a1a" text-anchor="start">TAMPAK ATAS</text>
<line x1="195.00" y1="191.20" x2="315.00" y2="191.20" stroke="#1a1a1a" stroke-width="0.22" stroke-linecap="round"/>
<text x="196.00" y="193.50" font-family="Liberation Sans, Arial, sans-serif" font-size="2.10" fill="#1a1a1a" text-anchor="start" font-weight="bold">G-02</text>
<text x="208.00" y="193.50" font-family="Liberation Sans, Arial, sans-serif" font-size="2.10" fill="#1a1a1a" text-anchor="start">TAMPAK DEPAN</text>
<line x1="195.00" y1="195.10" x2="315.00" y2="195.10" stroke="#1a1a1a" stroke-width="0.22" stroke-linecap="round"/>
<text x="196.00" y="197.40" font-family="Liberation Sans, Arial, sans-serif" font-size="2.10" fill="#1a1a1a" text-anchor="start" font-weight="bold">G-03</text>
<text x="208.00" y="197.40" font-family="Liberation Sans, Arial, sans-serif" font-size="2.10" fill="#1a1a1a" text-anchor="start">TAMPAK SAMPING (POTONGAN A-A)</text>
<line x1="195.00" y1="199.00" x2="315.00" y2="199.00" stroke="#1a1a1a" stroke-width="0.22" stroke-linecap="round"/>
<text x="196.00" y="201.30" font-family="Liberation Sans, Arial, sans-serif" font-size="2.10" fill="#1a1a1a" text-anchor="start" font-weight="bold">G-04</text>
<text x="208.00" y="201.30" font-family="Liberation Sans, Arial, sans-serif" font-size="2.10" fill="#1a1a1a" text-anchor="start">TAMPAK ATAS - PANEL SURYA DISAMARKAN (RANGKA)</text>
<line x1="195.00" y1="202.90" x2="315.00" y2="202.90" stroke="#1a1a1a" stroke-width="0.22" stroke-linecap="round"/>
<text x="196.00" y="205.20" font-family="Liberation Sans, Arial, sans-serif" font-size="2.10" fill="#1a1a1a" text-anchor="start" font-weight="bold">G-05</text>
<text x="208.00" y="205.20" font-family="Liberation Sans, Arial, sans-serif" font-size="2.10" fill="#1a1a1a" text-anchor="start">TAMPAK ATAS - PANEL DIHILANGKAN (RANGKA &amp; BETON)</text>
<line x1="195.00" y1="206.80" x2="315.00" y2="206.80" stroke="#1a1a1a" stroke-width="0.22" stroke-linecap="round"/>
<text x="196.00" y="209.10" font-family="Liberation Sans, Arial, sans-serif" font-size="2.10" fill="#1a1a1a" text-anchor="start" font-weight="bold">G-06</text>
<text x="208.00" y="209.10" font-family="Liberation Sans, Arial, sans-serif" font-size="2.10" fill="#1a1a1a" text-anchor="start">TAMPAK ATAS - PANEL &amp; RANGKA DISAMARKAN (BETON)</text>
<line x1="195.00" y1="210.70" x2="315.00" y2="210.70" stroke="#1a1a1a" stroke-width="0.22" stroke-linecap="round"/></svg>